# xmcd
# 
# Track frame offsets:
#     150
#     18065
#     31217
#     61086
#     77148
#     90916
#     113138
#     130688
#     146369
#     170114
# 
# Disc length: 2529
# 
# Revision: 0
# Processed by: cddbd v1.5.2PL0 Copyright (c) Steve Scherf et al.
# Submitted via: fre:ac v1.1beta1pre4
# 
DISCID=6f09df0a
DTITLE=Carvin Jones - The Carvinator
DYEAR=2011
DGENRE=Blues
TTITLE0=The Carvinator
TTITLE1=I Only Have One Gear
TTITLE2=Midnight Seduction
TTITLE3=Kitchen Full Of Problems
TTITLE4=Traviswalk
TTITLE5=Wrong Turn
TTITLE6=Gangster Of Love
TTITLE7=Frosty
TTITLE8=Angel Of Mercy
TTITLE9=Difference Of Oppiion
EXTD=
EXTT0=
EXTT1=
EXTT2=
EXTT3=
EXTT4=
EXTT5=
EXTT6=
EXTT7=
EXTT8=
EXTT9=
PLAYORDER=
